<?xml version="1.0" encoding="UTF-8" standalone="no"?>
<!-- Created with Inkscape (http://www.inkscape.org/) -->

<svg
   width="152.38704mm"
   height="135.46667mm"
   viewBox="0 0 152.38704 135.46667"
   version="1.1"
   id="svg5"
   xml:space="preserve"
   xmlns="http://www.w3.org/2000/svg"
   xmlns:svg="http://www.w3.org/2000/svg"><defs
     id="defs2" /><g
     id="layer1"
     transform="translate(-28.630011,-81.078642)"><path
       d="m 180.97709,148.67968 c 0,4.7625 -3.96875,8.49313 -8.46666,8.49313 h -8.46667 l 0.18521,42.38625 c 0,0.71437 -0.0529,1.42875 -0.13229,2.14312 v 4.25979 c 0,5.84729 -4.73605,10.58334 -10.58334,10.58334 h -4.23333 c -0.29104,0 -0.58208,0 -0.87313,-0.0265 -0.37041,0.0265 -0.74083,0.0265 -1.11125,0.0265 h -8.59895 -6.35 c -5.84729,0 -10.58334,-4.73605 -10.58334,-10.58334 v -6.35 -16.93333 c 0,-4.68313 -3.78354,-8.46667 -8.46666,-8.46667 H 96.363344 c -4.683125,0 -8.466666,3.78354 -8.466666,8.46667 v 16.93333 6.35 c 0,5.84729 -4.736042,10.58334 -10.583334,10.58334 h -6.35 -8.440208 c -0.396875,0 -0.79375,-0.0265 -1.190625,-0.0529 -0.3175,0.0265 -0.635,0.0529 -0.9525,0.0529 h -4.233333 c -5.847292,0 -10.583334,-4.73605 -10.583334,-10.58334 v -29.63333 c 0,-0.23813 0,-0.50271 0.02646,-0.74083 v -18.415 h -8.493127 c -4.7625,0 -8.466666,-3.70417 -8.466666,-8.49313 0,-2.38125 0.79375,-4.49792 2.645833,-6.35 L 99.115011,83.195306 c 1.852079,-1.852083 3.968749,-2.116666 5.820829,-2.116666 1.85209,0 3.96875,0.529166 5.55625,1.852083 l 67.57459,59.398957 c 2.11666,1.85208 3.175,3.96875 2.91041,6.35 z"
       id="path296"
       style="fill:#deddda;stroke-width:0.264583" /></g></svg>
