<?xml version="1.0" encoding="UTF-8" standalone="no"?>
<!-- Created with Inkscape (http://www.inkscape.org/) -->

<svg
   width="118.59947mm"
   height="118.57303mm"
   viewBox="0 0 118.59947 118.57303"
   version="1.1"
   id="svg5"
   xml:space="preserve"
   xmlns="http://www.w3.org/2000/svg"
   xmlns:svg="http://www.w3.org/2000/svg"><defs
     id="defs2" /><g
     id="layer1"
     transform="translate(-45.523793,-89.525464)"><path
       d="m 104.83676,118.41135 c -16.827501,0 -30.400626,13.57313 -30.400626,30.40063 0,16.8275 13.573125,30.40062 30.400626,30.40062 16.8275,0 30.40062,-13.57312 30.40062,-30.40062 0,-16.8275 -13.57312,-30.40063 -30.40062,-30.40063 z m 0,50.165 c -10.874376,0 -19.764376,-8.86354 -19.764376,-19.76437 0,-10.90084 8.863542,-19.76438 19.764376,-19.76438 10.90083,0 19.76437,8.86354 19.76437,19.76438 0,10.90083 -8.89,19.76437 -19.76437,19.76437 z m 38.735,-51.40854 c 0,3.94229 -3.175,7.09083 -7.09083,7.09083 -3.9423,0 -7.09084,-3.175 -7.09084,-7.09083 0,-3.91583 3.175,-7.09083 7.09084,-7.09083 3.91583,0 7.09083,3.175 7.09083,7.09083 z m 20.13479,7.19667 c -0.4498,-9.49855 -2.61938,-17.9123 -9.57792,-24.84438 -6.93208,-6.932083 -15.34583,-9.101667 -24.84437,-9.577917 -9.78958,-0.555625 -39.131876,-0.555625 -48.921459,0 -9.472084,0.449792 -17.885834,2.619375 -24.844376,9.551459 -6.958541,6.932088 -9.101666,15.345838 -9.577916,24.844378 -0.555625,9.78958 -0.555625,39.13187 0,48.92146 0.449791,9.49854 2.619375,17.91229 9.577916,24.84437 6.958542,6.93208 15.345834,9.10167 24.844376,9.57792 9.789583,0.55562 39.131879,0.55562 48.921459,0 9.49854,-0.4498 17.91229,-2.61938 24.84437,-9.57792 6.93208,-6.93208 9.10167,-15.34583 9.57792,-24.84437 0.55562,-9.78959 0.55562,-39.10542 0,-48.895 z m -12.64709,59.39895 c -2.06375,5.18584 -6.05895,9.18104 -11.27124,11.27125 -7.80521,3.09563 -26.32604,2.38125 -34.95146,2.38125 -8.625418,0 -27.172709,0.68792 -34.951459,-2.38125 -5.185834,-2.06375 -9.181042,-6.05896 -11.27125,-11.27125 -3.095626,-7.8052 -2.38125,-26.32604 -2.38125,-34.95145 0,-8.62542 -0.687917,-27.17271 2.38125,-34.95146 2.06375,-5.18584 6.058958,-9.18104 11.27125,-11.27125 7.805208,-3.095628 26.326041,-2.38125 34.951459,-2.38125 8.62542,0 27.17271,-0.68792 34.95146,2.38125 5.18583,2.06375 9.18103,6.05896 11.27124,11.27125 3.09563,7.80521 2.38125,26.32604 2.38125,34.95146 0,8.62541 0.71438,27.1727 -2.38125,34.95145 z"
       id="path250"
       style="fill:#deddda;stroke-width:0.264583" /></g></svg>
