<?xml version="1.0" encoding="UTF-8" standalone="no"?>
<!-- Created with Inkscape (http://www.inkscape.org/) -->

<svg
   width="135.46666mm"
   height="101.59999mm"
   viewBox="0 0 135.46666 101.59999"
   version="1.1"
   id="svg5"
   xml:space="preserve"
   xmlns="http://www.w3.org/2000/svg"
   xmlns:svg="http://www.w3.org/2000/svg"><defs
     id="defs2" /><g
     id="layer1"
     transform="translate(-37.090196,-98.011975)"><path
       d="m 49.790194,98.011976 c -7.011458,0 -12.7,5.688544 -12.7,12.700004 0,3.99521 1.878542,7.75229 5.08,10.16 l 57.573333,43.18 c 3.016253,2.24896 7.143753,2.24896 10.160003,0 l 57.57333,-43.18 c 3.20145,-2.40771 5.08,-6.16479 5.08,-10.16 0,-7.01146 -5.68855,-12.700004 -12.7,-12.700004 z m -12.7,29.633334 v 55.03333 c 0,9.33979 7.593542,16.93333 16.933333,16.93333 H 155.62352 c 9.33979,0 16.93334,-7.59354 16.93334,-16.93333 v -55.03333 l -57.57333,43.18 c -6.0325,4.52438 -14.2875,4.52438 -20.320003,0 z"
       id="path388"
       style="fill:#deddda;stroke-width:0.264583" /></g></svg>
