<?xml version="1.0" encoding="UTF-8" standalone="no"?>
<!-- Created with Inkscape (http://www.inkscape.org/) -->

<svg
   width="135.47263mm"
   height="135.47264mm"
   viewBox="0 0 135.47263 135.47264"
   version="1.1"
   id="svg5"
   xml:space="preserve"
   xmlns="http://www.w3.org/2000/svg"
   xmlns:svg="http://www.w3.org/2000/svg"><defs
     id="defs2" /><g
     id="layer1"
     transform="translate(-37.087216,-81.075658)"><path
       d="m 80.717005,87.590373 c -2.037292,-4.92125 -7.408334,-7.540625 -12.54125,-6.138334 l -23.283333,6.35 c -4.60375,1.27 -7.805209,5.450417 -7.805209,10.212917 0,65.457914 53.075417,118.533334 118.533327,118.533334 4.7625,0 8.94292,-3.20146 10.21292,-7.80521 l 6.35,-23.28334 c 1.40229,-5.13291 -1.21708,-10.50395 -6.13833,-12.54124 l -25.4,-10.58334 c -4.31271,-1.79916 -9.31333,-0.55562 -12.25021,3.06917 l -10.68916,13.04396 C 99.079088,169.63766 83.997838,154.55641 75.187213,135.92975 l 13.043958,-10.66271 c 3.624792,-2.96333 4.868334,-7.9375 3.069167,-12.25021 L 80.717005,87.616831 Z"
       id="path25"
       style="fill:#deddda;stroke-width:0.264583" /></g></svg>
