<?xml version="1.0" encoding="UTF-8" standalone="no"?>
<!-- Created with Inkscape (http://www.inkscape.org/) -->

<svg
   width="118.53333mm"
   height="118.53333mm"
   viewBox="0 0 118.53333 118.53333"
   version="1.1"
   id="svg5"
   xml:space="preserve"
   xmlns="http://www.w3.org/2000/svg"
   xmlns:svg="http://www.w3.org/2000/svg"><defs
     id="defs2" /><g
     id="layer1"
     transform="translate(-45.556867,-89.545308)"><path
       d="M 151.39019,89.545308 H 58.256864 c -7.011458,0 -12.7,5.688541 -12.7,12.700002 v 93.13333 c 0,7.01146 5.688542,12.7 12.7,12.7 h 93.133326 c 7.01146,0 12.7,-5.68854 12.7,-12.7 v -93.13333 c 0,-7.011461 -5.68854,-12.700002 -12.7,-12.700002 z m -12.93812,42.015832 c 0.0529,0.74083 0.0529,1.50813 0.0529,2.24896 0,22.93937 -17.4625,49.37125 -49.371248,49.37125 -9.8425,0 -18.970625,-2.8575 -26.643542,-7.77875 1.402292,0.15875 2.751667,0.21167 4.180417,0.21167 8.122708,0 15.583958,-2.75167 21.537083,-7.40834 -7.62,-0.15875 -14.022916,-5.15937 -16.218958,-12.03854 2.672292,0.39688 5.08,0.39688 7.831667,-0.3175 -7.9375,-1.61396 -13.890625,-8.59896 -13.890625,-17.03917 v -0.21166 c 2.301875,1.29646 5.000625,2.09021 7.831666,2.19604 a 17.316185,17.316185 0 0 1 -7.725836,-14.44625 c 0,-3.22792 0.846667,-6.19125 2.354792,-8.75771 8.546041,10.53042 21.378333,17.40958 35.771664,18.15042 -2.46062,-11.77396 6.35,-21.32542 16.93334,-21.32542 5.00062,0 9.49854,2.09021 12.67354,5.47688 3.91583,-0.74084 7.67291,-2.19605 11.00666,-4.18042 -1.29645,4.02167 -4.02166,7.40833 -7.62,9.55146 3.4925,-0.37042 6.87917,-1.34938 10.00125,-2.69875 -2.35479,3.46604 -5.31812,6.53521 -8.70479,8.99583 z"
       id="path25"
       style="fill:#deddda;stroke-width:0.264583" /></g></svg>
