<?xml version="1.0" encoding="UTF-8" standalone="no"?>
<!-- Created with Inkscape (http://www.inkscape.org/) -->

<svg
   width="144.49796mm"
   height="101.59999mm"
   viewBox="0 0 144.49796 101.59999"
   version="1.1"
   id="svg5"
   xml:space="preserve"
   xmlns="http://www.w3.org/2000/svg"
   xmlns:svg="http://www.w3.org/2000/svg"><defs
     id="defs2" /><g
     id="layer1"
     transform="translate(-32.693982,-65.617781)"><path
       d="m 174.17251,81.514743 c -1.66185,-6.257396 -6.55823,-11.185525 -12.77514,-12.857957 -11.2686,-3.039004 -56.45441,-3.039004 -56.45441,-3.039004 0,0 -45.185549,0 -56.454409,3.039004 -6.21692,1.672696 -11.1133,6.600561 -12.77515,12.857957 -3.01942,11.341893 -3.01942,35.005697 -3.01942,35.005697 0,0 0,23.6638 3.01942,35.0057 1.66185,6.2574 6.55823,10.98021 12.77515,12.65264 11.26886,3.039 56.454409,3.039 56.454409,3.039 0,0 45.18554,0 56.45441,-3.039 6.21691,-1.67243 11.11329,-6.39524 12.77514,-12.65264 3.01943,-11.3419 3.01943,-35.0057 3.01943,-35.0057 0,0 0,-23.663804 -3.01943,-35.005697 z M 90.164651,138.0054 V 95.03548 l 37.766359,21.48549 z"
       id="path25"
       style="fill:#deddda;stroke-width:0.264583" /></g></svg>
